<svg xmlns="http://www.w3.org/2000/svg" width="96" height="96" fill="none" viewBox="0 0 48 48">
    <path fill="#000" fill-rule="evenodd"
        d="M17.478 41.67c.334.33.84.422 1.272.233L39.32 32.87c.308-.135.54-.397.634-.717.094-.32.04-.664-.147-.94l-16-23.71a1.147 1.147 0 0 0-.99-.502 1.145 1.145 0 0 0-.953.568L8.15 31.279c-.256.442-.18.998.184 1.358l9.143 9.032Zm-.01-3.204-6.9-6.816 10.35-17.892-3.45 24.708Zm6.11-27.234 13.576 20.119-17.456 7.664 3.88-27.783Z"
        clip-rule="evenodd" />
</svg>